<svg xmlns="http://www.w3.org/2000/svg" viewBox="0 0 159.67 125.14"><defs><style>.cls-1,.cls-4{fill:#0071bc;}.cls-2,.cls-4{font-size:36.35px;font-family:GoudyStout, Goudy Stout;}.cls-3{opacity:0.26;}</style></defs><g id="Layer_2" data-name="Layer 2"><g id="Layer_1-2" data-name="Layer 1"><path class="cls-1" d="M17.13,104.34,11.8,98.79A40.15,40.15,0,0,1,.74,75.18C3.56,57.47,16.92,44,34,41.75L42,40.69l3.65-7.37C52.37,19.68,65.23,11.54,80,11.54c15.11,0,28.52,8.78,35,22.92L118.43,42l7.9,1.33c17.39,2.91,30.37,17.11,32.32,35.33A40,40,0,0,1,147,101l-5.8,5.67.07.47Z"/><path class="cls-1" d="M80,12c14.91,0,28.14,8.68,34.53,22.64l3.32,7.25.22.48.52.09,7.64,1.28c17.14,2.87,29.95,16.86,31.9,34.83a39.53,39.53,0,0,1-11.51,22.06l-5.62,5.5-.36.36,0,.13-123.33-2.8-5.19-5.41A39.67,39.67,0,0,1,1.24,75.19c2.81-17.45,16-30.69,32.84-32.94l7.68-1,.53-.07.23-.48,3.53-7.13C52.73,20.08,65.43,12,80,12h0m0-1C66.25,11,52.47,18.35,45.16,33.1l-3.53,7.13-7.68,1C15.24,43.76,2.85,58.54.24,75.17a40.58,40.58,0,0,0,11.2,24l5.46,5.69v0l125,2.84-.13-.81,5.62-5.5a40.43,40.43,0,0,0,11.82-22.75c-1.8-17-13.82-32.66-32.75-35.84l-7.64-1.28-3.31-7.24C108.4,18.81,94.21,11,80,11Z"/><text class="cls-2" transform="translate(71.46 99.75) scale(0.97 2)">1</text><g class="cls-3"><path class="cls-1" d="M159.08,74.72c-3.28-16.83-16-29.64-32.58-32.43l-7.38-1.24-3.2-7C109.28,19.54,95.52,10.54,80,10.54c-15.17,0-28.37,8.35-35.31,22.33l-3.41,6.9-7.41,1C17.56,42.94,4.56,55,.51,71.31.27,53,12.19,33.67,34.3,30.71l7.94-1.05,3.64-7.38C52.65,8.64,65.51.5,80.29.5c15.12,0,28.52,8.79,35,22.93l3.42,7.49,7.9,1.32C148.76,36,160.16,56.41,159.08,74.72Z"/><path class="cls-1" d="M80.3,1c14.91,0,28.14,8.67,34.53,22.64l3.31,7.24.22.49.53.09,7.64,1.28A37.49,37.49,0,0,1,152,49.38a41.8,41.8,0,0,1,6.7,21.42c-4.38-15.13-16.53-26.4-32.07-29l-7.12-1.19-3.09-6.77C109.65,19.16,95.72,10,80,10c-15.37,0-28.73,8.46-35.76,22.62L41,39.31l-7.15.95A40.31,40.31,0,0,0,1.14,67.42,41.77,41.77,0,0,1,8.67,46.68,37.39,37.39,0,0,1,34.36,31.21l7.68-1,.53-.07.23-.48,3.53-7.13C53,9,65.7,1,80.3,1h0m0-1C66.53,0,52.75,7.32,45.44,22.06L41.91,29.2l-7.68,1c-22.79,3-36.2,24.31-34,45C2.85,58.54,15.24,43.76,34,41.25l7.68-1,3.53-7.13C52.47,18.35,66.25,11,80,11c14.19,0,28.38,7.79,35.44,23.23l3.31,7.24,7.64,1.28c18.93,3.18,31,18.81,32.75,35.84,3.3-20.79-9.48-43-32.47-46.87l-7.64-1.28-3.31-7.25C108.67,7.78,94.49,0,80.29,0Z"/><path class="cls-1" d="M17.13,104.34,11.8,98.79A40.15,40.15,0,0,1,.74,75.18C3.56,57.47,16.92,44,34,41.75L42,40.69l3.65-7.37C52.37,19.68,65.23,11.54,80,11.54c15.11,0,28.52,8.78,35,22.92L118.43,42l7.9,1.33c17.39,2.91,30.37,17.11,32.32,35.33A40,40,0,0,1,147,101l-5.8,5.67.07.47Z"/><path class="cls-1" d="M80,12c14.91,0,28.14,8.68,34.53,22.64l3.32,7.25.22.48.52.09,7.64,1.28c17.14,2.87,29.95,16.86,31.9,34.83a39.53,39.53,0,0,1-11.51,22.06l-5.62,5.5-.36.36,0,.13-123.33-2.8-5.19-5.41A39.67,39.67,0,0,1,1.24,75.19c2.81-17.45,16-30.69,32.84-32.94l7.68-1,.53-.07.23-.48,3.53-7.13C52.73,20.08,65.43,12,80,12h0m0-1C66.25,11,52.47,18.35,45.16,33.1l-3.53,7.13-7.68,1C15.24,43.76,2.85,58.54.24,75.17a40.58,40.58,0,0,0,11.2,24l5.46,5.69v0l125,2.84-.13-.81,5.62-5.5a40.43,40.43,0,0,0,11.82-22.75c-1.8-17-13.82-32.66-32.75-35.84l-7.64-1.28-3.31-7.24C108.4,18.81,94.21,11,80,11Z"/><text class="cls-4" transform="translate(71.74 88.72) scale(0.97 2)">1</text></g><path class="cls-1" d="M17.13,104.34,11.8,98.79A40.15,40.15,0,0,1,.74,75.18C3.56,57.47,16.92,44,34,41.75L42,40.69l3.65-7.37C52.37,19.68,65.23,11.54,80,11.54c15.11,0,28.52,8.78,35,22.92L118.43,42l7.9,1.33c17.39,2.91,30.37,17.11,32.32,35.33A40,40,0,0,1,147,101l-5.8,5.67.07.47Z"/><path class="cls-1" d="M80,12c14.91,0,28.14,8.68,34.53,22.64l3.32,7.25.22.48.52.09,7.64,1.28c17.14,2.87,29.95,16.86,31.9,34.83a39.53,39.53,0,0,1-11.51,22.06l-5.62,5.5-.36.36,0,.13-123.33-2.8-5.19-5.41A39.67,39.67,0,0,1,1.24,75.19c2.81-17.45,16-30.69,32.84-32.94l7.68-1,.53-.07.23-.48,3.53-7.13C52.73,20.08,65.43,12,80,12h0m0-1C66.25,11,52.47,18.35,45.16,33.1l-3.53,7.13-7.68,1C15.24,43.76,2.85,58.54.24,75.17a40.58,40.58,0,0,0,11.2,24l5.46,5.69v0l125,2.84-.13-.81,5.62-5.5a40.43,40.43,0,0,0,11.82-22.75c-1.8-17-13.82-32.66-32.75-35.84l-7.64-1.28-3.31-7.24C108.4,18.81,94.21,11,80,11Z"/><text class="cls-2" transform="translate(71.46 99.75) scale(0.97 2)">1</text></g></g></svg>